<mxfile host="app.diagrams.net" modified="2024-04-17T18:19:32.110Z" agent="Mozilla/5.0 (Windows NT 10.0; Win64; x64) AppleWebKit/537.36 (KHTML, like Gecko) Chrome/121.0.0.0 Safari/537.36 OPR/107.0.0.0" etag="2serDNug4LeWcWhRv8yw" version="24.2.5" type="github" pages="3">
  <diagram name="vAutentificación" id="YasAqLQPGed4xInqM9tw">
    <mxGraphModel dx="2333" dy="1127" grid="1" gridSize="10" guides="1" tooltips="1" connect="1" arrows="1" fold="1" page="1" pageScale="1" pageWidth="827" pageHeight="1169" math="0" shadow="0">
      <root>
        <mxCell id="0" />
        <mxCell id="1" parent="0" />
        <mxCell id="gLu4nn6GZGxGN5JAKXRf-1" value="" style="rounded=0;whiteSpace=wrap;html=1;" vertex="1" parent="1">
          <mxGeometry x="170" y="100" width="335" height="450" as="geometry" />
        </mxCell>
        <mxCell id="gLu4nn6GZGxGN5JAKXRf-2" value="" style="rounded=1;whiteSpace=wrap;html=1;" vertex="1" parent="1">
          <mxGeometry x="202.5" y="130" width="270" height="390" as="geometry" />
        </mxCell>
        <mxCell id="gLu4nn6GZGxGN5JAKXRf-3" value="IMAGEN DE&amp;nbsp;&lt;div&gt;USUARIO&lt;/div&gt;" style="ellipse;whiteSpace=wrap;html=1;aspect=fixed;fillColor=#f5f5f5;fontColor=#333333;strokeColor=#666666;" vertex="1" parent="1">
          <mxGeometry x="272.5" y="163" width="130" height="130" as="geometry" />
        </mxCell>
        <mxCell id="gLu4nn6GZGxGN5JAKXRf-4" value="Usuario..." style="rounded=0;whiteSpace=wrap;html=1;align=left;" vertex="1" parent="1">
          <mxGeometry x="232.5" y="320" width="210" height="30" as="geometry" />
        </mxCell>
        <mxCell id="gLu4nn6GZGxGN5JAKXRf-5" value="Contraseña..." style="rounded=0;whiteSpace=wrap;html=1;align=left;" vertex="1" parent="1">
          <mxGeometry x="232.5" y="368" width="177.5" height="30" as="geometry" />
        </mxCell>
        <mxCell id="gLu4nn6GZGxGN5JAKXRf-6" value="ENTRAR" style="rounded=1;whiteSpace=wrap;html=1;" vertex="1" parent="1">
          <mxGeometry x="222.5" y="445" width="230" height="50" as="geometry" />
        </mxCell>
        <mxCell id="gLu4nn6GZGxGN5JAKXRf-7" value="" style="group" connectable="0" vertex="1" parent="1">
          <mxGeometry x="232.5" y="406" width="90" height="30" as="geometry" />
        </mxCell>
        <mxCell id="gLu4nn6GZGxGN5JAKXRf-8" value="" style="whiteSpace=wrap;html=1;aspect=fixed;" vertex="1" parent="gLu4nn6GZGxGN5JAKXRf-7">
          <mxGeometry y="10" width="10" height="10" as="geometry" />
        </mxCell>
        <mxCell id="gLu4nn6GZGxGN5JAKXRf-9" value="Recordarme" style="text;html=1;align=center;verticalAlign=middle;whiteSpace=wrap;rounded=0;" vertex="1" parent="gLu4nn6GZGxGN5JAKXRf-7">
          <mxGeometry x="12" width="70" height="30" as="geometry" />
        </mxCell>
        <mxCell id="gLu4nn6GZGxGN5JAKXRf-10" value="" style="ellipse;whiteSpace=wrap;html=1;" vertex="1" parent="1">
          <mxGeometry x="417.5" y="378" width="20" height="10" as="geometry" />
        </mxCell>
        <mxCell id="gLu4nn6GZGxGN5JAKXRf-11" value="" style="ellipse;whiteSpace=wrap;html=1;aspect=fixed;" vertex="1" parent="1">
          <mxGeometry x="422.5" y="378" width="10" height="10" as="geometry" />
        </mxCell>
        <mxCell id="gLu4nn6GZGxGN5JAKXRf-12" value="&lt;b&gt;&lt;font color=&quot;#ffffff&quot;&gt;JFRAME (VENTANA INDEPENDIENTE)&lt;/font&gt;&lt;/b&gt;" style="shape=note;whiteSpace=wrap;html=1;backgroundOutline=1;fontColor=#000000;darkOpacity=0.05;fillColor=#666600;strokeColor=none;fillStyle=solid;direction=west;gradientDirection=north;gradientColor=none;shadow=1;size=20;pointerEvents=1;" vertex="1" parent="1">
          <mxGeometry x="540" y="100" width="130" height="80" as="geometry" />
        </mxCell>
      </root>
    </mxGraphModel>
  </diagram>
  <diagram id="o4JieQ7IzYvlc1n18zYp" name="vContrato">
    <mxGraphModel dx="1633" dy="789" grid="1" gridSize="10" guides="1" tooltips="1" connect="1" arrows="1" fold="1" page="1" pageScale="1" pageWidth="827" pageHeight="1169" math="0" shadow="0">
      <root>
        <mxCell id="0" />
        <mxCell id="1" parent="0" />
        <mxCell id="tf8-SEyPBiM93hVMd-Ui-1" value="" style="whiteSpace=wrap;html=1;aspect=fixed;" vertex="1" parent="1">
          <mxGeometry x="70" y="50" width="490" height="490" as="geometry" />
        </mxCell>
        <mxCell id="tf8-SEyPBiM93hVMd-Ui-2" value="" style="rounded=1;whiteSpace=wrap;html=1;rotation=0;" vertex="1" parent="1">
          <mxGeometry x="100" y="140" width="430" height="310" as="geometry" />
        </mxCell>
        <mxCell id="tf8-SEyPBiM93hVMd-Ui-3" value="&lt;font style=&quot;font-size: 18px;&quot;&gt;Contrato de Aceptación del Inicio de Sesión a la Comunidad Imiriano&lt;/font&gt;" style="text;html=1;align=center;verticalAlign=middle;whiteSpace=wrap;rounded=0;" vertex="1" parent="1">
          <mxGeometry x="172.5" y="70" width="285" height="30" as="geometry" />
        </mxCell>
        <mxCell id="tf8-SEyPBiM93hVMd-Ui-4" value="&lt;div&gt;Contrato de Aceptación del Inicio de Sesión a la Comunidad&lt;/div&gt;&lt;div&gt;&lt;br&gt;&lt;/div&gt;&lt;div&gt;Este Contrato de Aceptación del Inicio de Sesión se celebra entre [sectas.gal/imiriano.sec/], en adelante sectas.gal/imiriano.sec/users_accept, y el Usuario, en adelante &quot;%nombreUsuario&quot;.&lt;/div&gt;&lt;div&gt;&lt;br&gt;&lt;/div&gt;&lt;div&gt;1. Aceptación del Inicio de Sesión&lt;/div&gt;&lt;div&gt;&lt;br&gt;&lt;/div&gt;&lt;div&gt;El Usuario acepta que al iniciar sesión en la base de datos utilizando su nombre de usuario y contraseña, está accediendo a los servicios y contenidos proporcionados por la comunidad Imiriano.&amp;nbsp;&lt;/div&gt;&lt;div&gt;&lt;br&gt;&lt;/div&gt;&lt;div&gt;2. Responsabilidad del Usuario&lt;/div&gt;&lt;div&gt;&lt;br&gt;&lt;/div&gt;&lt;div&gt;* El Usuario es responsable de mantener la confidencialidad de su nombre de usuario y contraseña, y de todas las actividades que ocurran bajo su cuenta.&amp;nbsp;&lt;/div&gt;&lt;div&gt;* Al aceptar este contrato, el Usuario se compromete a mostrar su ubicación en tiempo real durante el resto de su vida, con el fin de poder localizarlo para cualquier fin de la Comunidad&lt;/div&gt;&lt;div&gt;* Asimismo, al optar por dejar de formar parte de nuestra Comunidad, el Usuario está incumpliendo con los principios y valores fundamentales que sustentan nuestra Sociedad, poniendo en peligro su propia vida.&lt;/div&gt;&lt;div&gt;&lt;br&gt;&lt;/div&gt;&lt;div&gt;3. Uso Aceptable&lt;/div&gt;&lt;div&gt;&lt;br&gt;&lt;/div&gt;&lt;div&gt;El Usuario acepta utilizar la Base de Datos de nuestra Comunidad de acuerdo con los términos y condiciones establecidos por la misma, así como cumplir con todas las leyes y regulaciones aplicables.&lt;/div&gt;&lt;div&gt;&lt;br&gt;&lt;/div&gt;&lt;div&gt;4. Privacidad&lt;/div&gt;&lt;div&gt;&lt;br&gt;&lt;/div&gt;&lt;div&gt;La Base de Datos se compromete a proteger la privacidad del Usuario de acuerdo con su política de privacidad. Al aceptar este Contrato, el Usuario también acepta los términos de la política de privacidad de la Base de Datos.&lt;/div&gt;&lt;div&gt;&lt;br&gt;&lt;/div&gt;&lt;div&gt;5. Terminación&lt;/div&gt;&lt;div&gt;&lt;br&gt;&lt;/div&gt;&lt;div&gt;Este Contrato permanecerá en vigor hasta que sea terminado por cualquiera de las partes. La Base de Datos se reserva el derecho de terminar este Contrato y de bloquear el acceso del Usuario a su cuenta en caso de violación de los términos y condiciones establecidos. Como bien se dijo en el punto 2, cualquier tipo de desligue del Usuario con nuestra Comunidad será penado seriamente, con una decisión que no tendrá vuelta atrás.&lt;/div&gt;&lt;div&gt;&lt;br&gt;&lt;/div&gt;&lt;div&gt;6. Ley Aplicable&lt;/div&gt;&lt;div&gt;&lt;br&gt;&lt;/div&gt;&lt;div&gt;Este Contrato se regirá e interpretará de acuerdo con las leyes del Mundo Imir sin tener en cuenta sus principios de conflicto de leyes.&lt;/div&gt;&lt;div&gt;&lt;br&gt;&lt;/div&gt;&lt;div&gt;Al iniciar sesión en la Base de Datos, el Usuario acepta los términos y condiciones establecidos en este Contrato.&lt;/div&gt;" style="text;strokeColor=none;fillColor=none;align=left;verticalAlign=top;spacingLeft=4;spacingRight=4;overflow=hidden;points=[[0,0.5],[1,0.5]];portConstraint=eastwest;rotatable=0;html=1;whiteSpace=wrap;horizontal=1;fontFamily=Garamond;" vertex="1" parent="1">
          <mxGeometry x="115" y="170" width="375" height="250" as="geometry" />
        </mxCell>
        <mxCell id="tf8-SEyPBiM93hVMd-Ui-5" value="&lt;font color=&quot;#9e9e9e&quot;&gt;Rechazar&lt;/font&gt;" style="rounded=1;whiteSpace=wrap;html=1;fillColor=none;strokeColor=#A1A1A1;" vertex="1" parent="1">
          <mxGeometry x="115" y="480" width="120" height="30" as="geometry" />
        </mxCell>
        <mxCell id="tf8-SEyPBiM93hVMd-Ui-6" value="Aceptar" style="rounded=1;whiteSpace=wrap;html=1;" vertex="1" parent="1">
          <mxGeometry x="400" y="480" width="120" height="30" as="geometry" />
        </mxCell>
        <mxCell id="tf8-SEyPBiM93hVMd-Ui-7" value="" style="shape=flexArrow;endArrow=classic;startArrow=classic;html=1;rounded=0;startWidth=6.046511627906977;endWidth=6.046511627906977;startSize=5.272093023255815;endSize=5.272093023255815;" edge="1" parent="1">
          <mxGeometry width="100" height="100" relative="1" as="geometry">
            <mxPoint x="510" y="410" as="sourcePoint" />
            <mxPoint x="510" y="170" as="targetPoint" />
          </mxGeometry>
        </mxCell>
        <mxCell id="tf8-SEyPBiM93hVMd-Ui-8" value="&lt;b&gt;&lt;font color=&quot;#ffffff&quot;&gt;* Tamaño pequeño-medio&lt;/font&gt;&lt;/b&gt;&lt;div&gt;&lt;b&gt;&lt;font color=&quot;#ffffff&quot;&gt;* JFRAME (VENTANA INDEPENDIENTE)&lt;/font&gt;&lt;/b&gt;&lt;/div&gt;" style="shape=note;whiteSpace=wrap;html=1;backgroundOutline=1;fontColor=#000000;darkOpacity=0.05;fillColor=#666600;strokeColor=none;fillStyle=solid;direction=west;gradientDirection=north;gradientColor=none;shadow=1;size=20;pointerEvents=1;" vertex="1" parent="1">
          <mxGeometry x="570" y="50" width="130" height="80" as="geometry" />
        </mxCell>
        <mxCell id="tf8-SEyPBiM93hVMd-Ui-9" value="" style="endArrow=none;html=1;rounded=0;entryX=0.003;entryY=0.133;entryDx=0;entryDy=0;entryPerimeter=0;exitX=1.002;exitY=0.137;exitDx=0;exitDy=0;exitPerimeter=0;" edge="1" parent="1" source="tf8-SEyPBiM93hVMd-Ui-1" target="tf8-SEyPBiM93hVMd-Ui-1">
          <mxGeometry width="50" height="50" relative="1" as="geometry">
            <mxPoint x="320" y="220" as="sourcePoint" />
            <mxPoint x="370" y="170" as="targetPoint" />
            <Array as="points">
              <mxPoint x="490" y="115" />
            </Array>
          </mxGeometry>
        </mxCell>
      </root>
    </mxGraphModel>
  </diagram>
  <diagram id="j3movWOZkcOFx5HtM2xL" name="vPrincipal">
    <mxGraphModel dx="1633" dy="789" grid="1" gridSize="10" guides="1" tooltips="1" connect="1" arrows="1" fold="1" page="1" pageScale="1" pageWidth="827" pageHeight="1169" math="0" shadow="0">
      <root>
        <mxCell id="0" />
        <mxCell id="1" parent="0" />
        <mxCell id="EB8h4vg5Nq6Gj4txelel-1" value="EVENTOS" style="rounded=0;whiteSpace=wrap;html=1;" vertex="1" parent="1">
          <mxGeometry x="770" y="140" width="350" height="30" as="geometry" />
        </mxCell>
        <mxCell id="EB8h4vg5Nq6Gj4txelel-2" value="" style="ellipse;whiteSpace=wrap;html=1;aspect=fixed;" vertex="1" parent="1">
          <mxGeometry x="334" y="250" width="80" height="80" as="geometry" />
        </mxCell>
        <mxCell id="EB8h4vg5Nq6Gj4txelel-3" value="" style="whiteSpace=wrap;html=1;aspect=fixed;" vertex="1" parent="1">
          <mxGeometry x="301.77" y="230" width="80" height="80" as="geometry" />
        </mxCell>
        <mxCell id="EB8h4vg5Nq6Gj4txelel-4" value="" style="rounded=0;whiteSpace=wrap;html=1;" vertex="1" parent="1">
          <mxGeometry x="620" y="480" width="500" height="210" as="geometry" />
        </mxCell>
        <mxCell id="EB8h4vg5Nq6Gj4txelel-5" value="" style="rounded=0;whiteSpace=wrap;html=1;" vertex="1" parent="1">
          <mxGeometry x="10.77" y="20" width="1139.23" height="770" as="geometry" />
        </mxCell>
        <mxCell id="EB8h4vg5Nq6Gj4txelel-6" value="" style="group" connectable="0" vertex="1" parent="1">
          <mxGeometry x="40" y="150" width="400" height="600" as="geometry" />
        </mxCell>
        <mxCell id="EB8h4vg5Nq6Gj4txelel-7" value="&lt;div style=&quot;text-align: justify;&quot;&gt;&lt;br&gt;&lt;/div&gt;" style="rounded=1;whiteSpace=wrap;html=1;movable=1;resizable=1;rotatable=1;deletable=1;editable=1;locked=0;connectable=1;" vertex="1" parent="EB8h4vg5Nq6Gj4txelel-6">
          <mxGeometry width="380.00000000000006" height="600" as="geometry" />
        </mxCell>
        <mxCell id="EB8h4vg5Nq6Gj4txelel-8" value="IMAGEN" style="rounded=1;whiteSpace=wrap;html=1;movable=1;resizable=1;rotatable=1;deletable=1;editable=1;locked=0;connectable=1;" vertex="1" parent="EB8h4vg5Nq6Gj4txelel-6">
          <mxGeometry x="42.75" y="40" width="294.5" height="128.75" as="geometry" />
        </mxCell>
        <mxCell id="EB8h4vg5Nq6Gj4txelel-9" value="&lt;div style=&quot;text-align: justify;&quot;&gt;&lt;span style=&quot;font-size: 18px; background-color: initial;&quot;&gt;La diosa Imyr, una figura misteriosa que emergió de los océanos en tiempos antiguos, es reverenciada por su sabiduría y su capacidad para dar forma a la tierra y las aguas. Aunque enfrentó desafíos y conflictos, Imyr siempre mostró compasión por aquellos que la adoraban. Su culto ganó seguidores devotos en todo el mundo, quienes comparten su creencia en la armonía, la prosperidad y la justicia. Imyr se convirtió en un símbolo de esperanza y redención, inspirando a generaciones futuras a seguir sus enseñanzas de sabiduría y valentía&lt;/span&gt;&lt;/div&gt;" style="text;html=1;align=center;verticalAlign=middle;whiteSpace=wrap;rounded=0;" vertex="1" parent="EB8h4vg5Nq6Gj4txelel-6">
          <mxGeometry x="42.75" y="200" width="297.25" height="350" as="geometry" />
        </mxCell>
        <mxCell id="EB8h4vg5Nq6Gj4txelel-10" value="" style="endArrow=none;html=1;rounded=0;entryX=-0.001;entryY=0.124;entryDx=0;entryDy=0;entryPerimeter=0;exitX=0.998;exitY=0.12;exitDx=0;exitDy=0;exitPerimeter=0;" edge="1" parent="1" source="EB8h4vg5Nq6Gj4txelel-5" target="EB8h4vg5Nq6Gj4txelel-5">
          <mxGeometry width="50" height="50" relative="1" as="geometry">
            <mxPoint x="311.77" y="300" as="sourcePoint" />
            <mxPoint x="361.77" y="250" as="targetPoint" />
          </mxGeometry>
        </mxCell>
        <mxCell id="EB8h4vg5Nq6Gj4txelel-11" value="&lt;font style=&quot;font-size: 36px;&quot;&gt;Bienvenidx a la Comunidad Imyriano&lt;/font&gt;" style="text;html=1;align=center;verticalAlign=middle;whiteSpace=wrap;rounded=0;" vertex="1" parent="1">
          <mxGeometry x="262" y="50" width="644.23" height="30" as="geometry" />
        </mxCell>
        <mxCell id="EB8h4vg5Nq6Gj4txelel-12" value="Nº DE MIEMBROS: XX&lt;br&gt;Nª DE EVENTOS REALIZADOS: XX&lt;br&gt;Nº CONTACTOS: XX&lt;br&gt;Nº RITUALES RELIZADOS: XX&lt;br&gt;* INICIACIÓN: XX&lt;br&gt;* IMYR: XX&lt;br&gt;* ILUMINACIÓN: XX&lt;br&gt;* EXTREMAUNCIÓN: XX" style="rounded=1;whiteSpace=wrap;html=1;" vertex="1" parent="1">
          <mxGeometry x="450" y="600" width="510" height="150" as="geometry" />
        </mxCell>
        <mxCell id="EB8h4vg5Nq6Gj4txelel-13" value="LISTA DE RITUALES&amp;nbsp;&lt;div&gt;PASADOS&lt;/div&gt;" style="rounded=0;whiteSpace=wrap;html=1;" vertex="1" parent="1">
          <mxGeometry x="977" y="160" width="160" height="550" as="geometry" />
        </mxCell>
        <mxCell id="EB8h4vg5Nq6Gj4txelel-14" value="OPCIONES" style="rounded=0;whiteSpace=wrap;html=1;" vertex="1" parent="1">
          <mxGeometry x="978" y="730" width="172" height="60" as="geometry" />
        </mxCell>
        <mxCell id="EB8h4vg5Nq6Gj4txelel-15" value="" style="group" connectable="0" vertex="1" parent="1">
          <mxGeometry x="450" y="160" width="510" height="205" as="geometry" />
        </mxCell>
        <mxCell id="EB8h4vg5Nq6Gj4txelel-16" value="LISTA DE EVENTOS PASADOS" style="rounded=0;whiteSpace=wrap;html=1;" vertex="1" parent="EB8h4vg5Nq6Gj4txelel-15">
          <mxGeometry width="510" height="205" as="geometry" />
        </mxCell>
        <mxCell id="EB8h4vg5Nq6Gj4txelel-17" value="" style="endArrow=none;html=1;rounded=0;exitX=-0.002;exitY=0.132;exitDx=0;exitDy=0;exitPerimeter=0;entryX=0.996;entryY=0.135;entryDx=0;entryDy=0;entryPerimeter=0;" edge="1" parent="EB8h4vg5Nq6Gj4txelel-15" source="EB8h4vg5Nq6Gj4txelel-16" target="EB8h4vg5Nq6Gj4txelel-16">
          <mxGeometry width="50" height="50" relative="1" as="geometry">
            <mxPoint x="300" y="170" as="sourcePoint" />
            <mxPoint x="350" y="120" as="targetPoint" />
          </mxGeometry>
        </mxCell>
        <mxCell id="EB8h4vg5Nq6Gj4txelel-18" value="RESULTADO" style="text;html=1;align=center;verticalAlign=middle;whiteSpace=wrap;rounded=0;fontSize=14;" vertex="1" parent="EB8h4vg5Nq6Gj4txelel-15">
          <mxGeometry x="430" width="60" height="30" as="geometry" />
        </mxCell>
        <mxCell id="EB8h4vg5Nq6Gj4txelel-19" value="F INICIO" style="text;html=1;align=center;verticalAlign=middle;whiteSpace=wrap;rounded=0;fontSize=12;" vertex="1" parent="EB8h4vg5Nq6Gj4txelel-15">
          <mxGeometry x="76" width="70" height="30" as="geometry" />
        </mxCell>
        <mxCell id="EB8h4vg5Nq6Gj4txelel-20" value="F FINAL" style="text;html=1;align=center;verticalAlign=middle;whiteSpace=wrap;rounded=0;fontSize=12;" vertex="1" parent="EB8h4vg5Nq6Gj4txelel-15">
          <mxGeometry x="140" width="70" height="30" as="geometry" />
        </mxCell>
        <mxCell id="EB8h4vg5Nq6Gj4txelel-21" value="DESCRIPCIÓN&amp;nbsp;" style="text;html=1;align=center;verticalAlign=middle;whiteSpace=wrap;rounded=0;fontSize=14;" vertex="1" parent="EB8h4vg5Nq6Gj4txelel-15">
          <mxGeometry x="180" width="250" height="30" as="geometry" />
        </mxCell>
        <mxCell id="EB8h4vg5Nq6Gj4txelel-22" value="" style="endArrow=none;html=1;rounded=0;exitX=0.059;exitY=-0.025;exitDx=0;exitDy=0;exitPerimeter=0;entryX=0.156;entryY=1.006;entryDx=0;entryDy=0;entryPerimeter=0;" edge="1" parent="EB8h4vg5Nq6Gj4txelel-15" source="EB8h4vg5Nq6Gj4txelel-19" target="EB8h4vg5Nq6Gj4txelel-16">
          <mxGeometry width="50" height="50" relative="1" as="geometry">
            <mxPoint x="80" y="20" as="sourcePoint" />
            <mxPoint x="80" y="200" as="targetPoint" />
            <Array as="points">
              <mxPoint x="80" y="20" />
            </Array>
          </mxGeometry>
        </mxCell>
        <mxCell id="EB8h4vg5Nq6Gj4txelel-23" value="" style="endArrow=none;html=1;rounded=0;exitX=0;exitY=0;exitDx=0;exitDy=0;entryX=0.404;entryY=0.992;entryDx=0;entryDy=0;entryPerimeter=0;" edge="1" parent="EB8h4vg5Nq6Gj4txelel-15" target="EB8h4vg5Nq6Gj4txelel-16">
          <mxGeometry width="50" height="50" relative="1" as="geometry">
            <mxPoint x="205" as="sourcePoint" />
            <mxPoint x="205" y="60" as="targetPoint" />
          </mxGeometry>
        </mxCell>
        <mxCell id="EB8h4vg5Nq6Gj4txelel-24" value="" style="endArrow=none;html=1;rounded=0;exitX=0;exitY=0;exitDx=0;exitDy=0;entryX=0.804;entryY=1.001;entryDx=0;entryDy=0;entryPerimeter=0;" edge="1" parent="EB8h4vg5Nq6Gj4txelel-15" target="EB8h4vg5Nq6Gj4txelel-16">
          <mxGeometry width="50" height="50" relative="1" as="geometry">
            <mxPoint x="409.99999999999994" as="sourcePoint" />
            <mxPoint x="409.99999999999994" y="60" as="targetPoint" />
          </mxGeometry>
        </mxCell>
        <mxCell id="EB8h4vg5Nq6Gj4txelel-25" value="NOMBRE" style="text;html=1;align=center;verticalAlign=middle;whiteSpace=wrap;rounded=0;fontSize=14;" vertex="1" parent="EB8h4vg5Nq6Gj4txelel-15">
          <mxGeometry x="10" width="50" height="30" as="geometry" />
        </mxCell>
        <mxCell id="EB8h4vg5Nq6Gj4txelel-26" value="" style="endArrow=none;html=1;rounded=0;exitX=0;exitY=0;exitDx=0;exitDy=0;entryX=0.284;entryY=1.004;entryDx=0;entryDy=0;entryPerimeter=0;" edge="1" parent="EB8h4vg5Nq6Gj4txelel-15" target="EB8h4vg5Nq6Gj4txelel-16">
          <mxGeometry width="50" height="50" relative="1" as="geometry">
            <mxPoint x="145.31" as="sourcePoint" />
            <mxPoint x="145.31" y="50" as="targetPoint" />
          </mxGeometry>
        </mxCell>
        <mxCell id="EB8h4vg5Nq6Gj4txelel-27" value="" style="group" connectable="0" vertex="1" parent="1">
          <mxGeometry x="450" y="380" width="510" height="205" as="geometry" />
        </mxCell>
        <mxCell id="EB8h4vg5Nq6Gj4txelel-28" value="LISTA DE EVENTOS FUTUROS" style="rounded=0;whiteSpace=wrap;html=1;" vertex="1" parent="EB8h4vg5Nq6Gj4txelel-27">
          <mxGeometry width="510" height="205" as="geometry" />
        </mxCell>
        <mxCell id="EB8h4vg5Nq6Gj4txelel-29" value="" style="endArrow=none;html=1;rounded=0;exitX=-0.002;exitY=0.132;exitDx=0;exitDy=0;exitPerimeter=0;entryX=0.996;entryY=0.135;entryDx=0;entryDy=0;entryPerimeter=0;" edge="1" parent="EB8h4vg5Nq6Gj4txelel-27" source="EB8h4vg5Nq6Gj4txelel-28" target="EB8h4vg5Nq6Gj4txelel-28">
          <mxGeometry width="50" height="50" relative="1" as="geometry">
            <mxPoint x="300" y="170" as="sourcePoint" />
            <mxPoint x="350" y="120" as="targetPoint" />
          </mxGeometry>
        </mxCell>
        <mxCell id="EB8h4vg5Nq6Gj4txelel-30" value="JEFE A CARGO" style="text;html=1;align=center;verticalAlign=middle;whiteSpace=wrap;rounded=0;fontSize=14;" vertex="1" parent="EB8h4vg5Nq6Gj4txelel-27">
          <mxGeometry x="396" width="114" height="30" as="geometry" />
        </mxCell>
        <mxCell id="EB8h4vg5Nq6Gj4txelel-31" value="F INICIO" style="text;html=1;align=center;verticalAlign=middle;whiteSpace=wrap;rounded=0;fontSize=12;" vertex="1" parent="EB8h4vg5Nq6Gj4txelel-27">
          <mxGeometry x="76" width="70" height="30" as="geometry" />
        </mxCell>
        <mxCell id="EB8h4vg5Nq6Gj4txelel-32" value="DESCRIPCIÓN&amp;nbsp;" style="text;html=1;align=center;verticalAlign=middle;whiteSpace=wrap;rounded=0;fontSize=14;" vertex="1" parent="EB8h4vg5Nq6Gj4txelel-27">
          <mxGeometry x="146" width="250" height="30" as="geometry" />
        </mxCell>
        <mxCell id="EB8h4vg5Nq6Gj4txelel-33" value="" style="endArrow=none;html=1;rounded=0;exitX=0.059;exitY=-0.025;exitDx=0;exitDy=0;exitPerimeter=0;" edge="1" parent="EB8h4vg5Nq6Gj4txelel-27" source="EB8h4vg5Nq6Gj4txelel-31">
          <mxGeometry width="50" height="50" relative="1" as="geometry">
            <mxPoint x="80" y="20" as="sourcePoint" />
            <mxPoint x="80" y="210" as="targetPoint" />
            <Array as="points">
              <mxPoint x="80" y="20" />
            </Array>
          </mxGeometry>
        </mxCell>
        <mxCell id="EB8h4vg5Nq6Gj4txelel-34" value="" style="endArrow=none;html=1;rounded=0;exitX=0;exitY=0;exitDx=0;exitDy=0;" edge="1" parent="EB8h4vg5Nq6Gj4txelel-27">
          <mxGeometry width="50" height="50" relative="1" as="geometry">
            <mxPoint x="394.66999999999996" as="sourcePoint" />
            <mxPoint x="395" y="210" as="targetPoint" />
          </mxGeometry>
        </mxCell>
        <mxCell id="EB8h4vg5Nq6Gj4txelel-35" value="NOMBRE" style="text;html=1;align=center;verticalAlign=middle;whiteSpace=wrap;rounded=0;fontSize=14;" vertex="1" parent="EB8h4vg5Nq6Gj4txelel-27">
          <mxGeometry x="10" width="50" height="30" as="geometry" />
        </mxCell>
        <mxCell id="EB8h4vg5Nq6Gj4txelel-36" value="" style="endArrow=none;html=1;rounded=0;exitX=0;exitY=0;exitDx=0;exitDy=0;entryX=0.285;entryY=0.976;entryDx=0;entryDy=0;entryPerimeter=0;" edge="1" parent="EB8h4vg5Nq6Gj4txelel-27" target="EB8h4vg5Nq6Gj4txelel-28">
          <mxGeometry width="50" height="50" relative="1" as="geometry">
            <mxPoint x="145.31" as="sourcePoint" />
            <mxPoint x="145.31" y="50" as="targetPoint" />
          </mxGeometry>
        </mxCell>
        <mxCell id="EB8h4vg5Nq6Gj4txelel-37" value="&lt;b&gt;&lt;font style=&quot;font-size: 18px;&quot; color=&quot;#ffffff&quot;&gt;JFRAME (VENTANA INDEPENDIENTE)&lt;/font&gt;&lt;/b&gt;" style="shape=note;whiteSpace=wrap;html=1;backgroundOutline=1;fontColor=#000000;darkOpacity=0.05;fillColor=#666600;strokeColor=none;fillStyle=solid;direction=west;gradientDirection=north;gradientColor=none;shadow=1;size=20;pointerEvents=1;sketch=1;curveFitting=1;jiggle=2;" vertex="1" parent="1">
          <mxGeometry x="1180" y="20" width="210" height="130" as="geometry" />
        </mxCell>
      </root>
    </mxGraphModel>
  </diagram>
</mxfile>
